<svg xmlns="http://www.w3.org/2000/svg" xmlns:xlink="http://www.w3.org/1999/xlink" width="43" height="43" viewBox="0 0 43 43">
    <defs>
        <path id="a" d="M0 .2h19.592v11.497H.001z"/>
    </defs>
    <g fill="none" fill-rule="evenodd">
        <circle cx="21.5" cy="21.5" r="21.5" fill="#5892B6"/>
        <g transform="translate(12 19.362)">
            <mask id="b" fill="#fff">
                <use xlink:href="#a"/>
            </mask>
            <path fill="#FFF" d="M14.536 4.394L9.491 9.008a.971.971 0 0 1-1.312.002l-3.12-2.827a.977.977 0 0 1-.068-1.378.976.976 0 0 1 1.379-.066L8.83 6.97l4.388-4.016a.975.975 0 1 1 1.318 1.439zM.001.2l1.783 10.522a1.17 1.17 0 0 0 1.154.975h13.715a1.17 1.17 0 0 0 1.154-.975L19.593.2H.001z" mask="url(#b)"/>
        </g>
        <path fill="#FFF" d="M24.017 15.839h-4.44a.63.63 0 0 1-.63-.628.63.63 0 0 1 .63-.627h4.44a.63.63 0 0 1 .628.627.63.63 0 0 1-.628.628zm3.946-3.156A1.167 1.167 0 0 0 26.901 12H16.69c-.458 0-.873.268-1.062.683l-3.59 5.95h19.513l-3.589-5.95z"/>
    </g>
</svg>
